<svg xmlns="http://www.w3.org/2000/svg" xmlns:xlink="http://www.w3.org/1999/xlink" width="70" zoomAndPan="magnify" viewBox="0 0 52.5 30.000001" height="40" preserveAspectRatio="xMidYMid meet" version="1.0"><defs><g/><clipPath id="id1"><path d="M 7 8.917969 L 23.707031 8.917969 L 23.707031 19.183594 L 7 19.183594 Z M 7 8.917969 " clip-rule="nonzero"/></clipPath><clipPath id="id2"><path d="M 0.605469 8.917969 L 18 8.917969 L 18 19.183594 L 0.605469 19.183594 Z M 0.605469 8.917969 " clip-rule="nonzero"/></clipPath><clipPath id="id3"><path d="M 49 16 L 51.410156 16 L 51.410156 20 L 49 20 Z M 49 16 " clip-rule="nonzero"/></clipPath></defs><g clip-path="url(#id1)"><path fill="#737373" d="M 18.417969 8.945312 C 16.855469 8.917969 15.441406 9.546875 14.453125 10.5625 C 14.011719 11.019531 14.152344 11.757812 14.722656 12.046875 C 15.113281 12.242188 15.597656 12.175781 15.902344 11.863281 C 16.507812 11.242188 17.363281 10.851562 18.320312 10.851562 C 20.175781 10.851562 21.671875 12.324219 21.632812 14.121094 C 21.605469 15.324219 20.863281 16.414062 19.742188 16.9375 C 18.058594 17.722656 16.371094 16.6875 14.894531 15.933594 C 12.785156 14.851562 10.671875 13.769531 8.558594 12.683594 C 8.082031 12.441406 7.496094 12.617188 7.246094 13.074219 C 7 13.527344 7.175781 14.085938 7.640625 14.332031 C 8.285156 14.667969 9.070312 15.109375 9.203125 15.175781 C 10.0625 15.613281 10.921875 16.046875 11.785156 16.480469 C 12.84375 17.019531 13.898438 17.570312 14.96875 18.085938 C 16.054688 18.609375 17.082031 19.15625 18.320312 19.15625 C 21.285156 19.15625 23.683594 16.800781 23.609375 13.925781 C 23.542969 11.207031 21.238281 8.996094 18.417969 8.945312 " fill-opacity="1" fill-rule="nonzero"/></g><g clip-path="url(#id2)"><path fill="#ffbb36" d="M 5.890625 19.15625 C 7.453125 19.183594 8.867188 18.554688 9.855469 17.539062 C 10.296875 17.082031 10.15625 16.34375 9.585938 16.054688 L 9.554688 16.039062 C 9.167969 15.84375 8.703125 15.929688 8.40625 16.234375 C 7.800781 16.859375 6.941406 17.246094 5.988281 17.246094 C 4.132812 17.246094 2.632812 15.777344 2.675781 13.976562 C 2.703125 12.777344 3.441406 11.6875 4.5625 11.164062 C 6.25 10.375 7.9375 11.410156 9.410156 12.167969 C 11.523438 13.25 13.636719 14.332031 15.75 15.414062 C 16.226562 15.65625 16.8125 15.484375 17.0625 15.023438 C 17.308594 14.570312 17.132812 14.011719 16.667969 13.769531 C 16.023438 13.433594 15.238281 12.992188 15.105469 12.925781 C 14.246094 12.488281 13.382812 12.054688 12.523438 11.617188 C 11.460938 11.082031 10.410156 10.527344 9.335938 10.011719 C 8.253906 9.492188 7.226562 8.945312 5.988281 8.945312 C 3.023438 8.945312 0.625 11.296875 0.699219 14.175781 C 0.765625 16.894531 3.070312 19.105469 5.890625 19.15625 " fill-opacity="1" fill-rule="nonzero"/></g><g fill="#000000" fill-opacity="1"><g transform="translate(26.931737, 15.641057)"><g><path d="M 4.917969 -0.214844 L 3.21875 -4.820312 C 3.152344 -4.980469 3.074219 -5.058594 2.90625 -5.058594 L 2.167969 -5.058594 C 2 -5.058594 1.914062 -4.980469 1.851562 -4.820312 L 0.144531 -0.214844 C 0.109375 -0.121094 0.109375 0 0.277344 0 L 1.082031 0 C 1.253906 0 1.3125 -0.046875 1.375 -0.230469 L 1.589844 -0.835938 L 3.472656 -0.835938 L 3.6875 -0.230469 C 3.75 -0.046875 3.8125 0 3.980469 0 L 4.789062 0 C 4.957031 0 4.957031 -0.121094 4.917969 -0.214844 Z M 2.535156 -3.613281 L 3.113281 -1.914062 L 1.960938 -1.914062 Z M 2.535156 -3.613281 "/></g></g></g><g fill="#000000" fill-opacity="1"><g transform="translate(31.812076, 15.641057)"><g><path d="M 4.171875 -2.621094 C 4.242188 -2.652344 4.734375 -2.898438 4.734375 -3.671875 C 4.734375 -4.394531 4.195312 -5.066406 2.945312 -5.066406 L 0.792969 -5.066406 C 0.613281 -5.066406 0.570312 -4.980469 0.570312 -4.84375 L 0.570312 -0.222656 C 0.570312 -0.0859375 0.613281 0 0.792969 0 L 3.050781 0 C 4.121094 0 4.878906 -0.5 4.878906 -1.476562 C 4.878906 -2.304688 4.234375 -2.597656 4.171875 -2.621094 Z M 3.066406 -1.089844 L 1.773438 -1.089844 L 1.773438 -3.980469 L 2.945312 -3.980469 C 3.34375 -3.980469 3.582031 -3.898438 3.582031 -3.550781 C 3.582031 -3.25 3.390625 -3.089844 2.945312 -3.089844 L 2.84375 -3.089844 C 2.667969 -3.089844 2.621094 -3.003906 2.621094 -2.867188 L 2.621094 -2.28125 C 2.621094 -2.144531 2.667969 -2.058594 2.84375 -2.058594 L 3.019531 -2.058594 C 3.390625 -2.058594 3.660156 -1.953125 3.660156 -1.589844 C 3.660156 -1.246094 3.441406 -1.089844 3.066406 -1.089844 Z M 3.066406 -1.089844 "/></g></g></g><g fill="#000000" fill-opacity="1"><g transform="translate(36.938353, 15.641057)"><g><path d="M 4.464844 -1.5 C 4.464844 -1.683594 4.402344 -1.761719 4.234375 -1.761719 L 3.480469 -1.761719 C 3.3125 -1.761719 3.296875 -1.636719 3.273438 -1.484375 C 3.210938 -1.113281 2.882812 -0.960938 2.46875 -0.960938 C 1.960938 -0.960938 1.613281 -1.238281 1.613281 -1.730469 L 1.613281 -3.328125 C 1.613281 -3.8125 1.960938 -4.097656 2.46875 -4.097656 C 2.882812 -4.097656 3.097656 -3.980469 3.257812 -3.726562 C 3.320312 -3.636719 3.328125 -3.488281 3.488281 -3.488281 L 4.226562 -3.488281 C 4.402344 -3.488281 4.464844 -3.527344 4.464844 -3.710938 C 4.367188 -4.6875 3.421875 -5.171875 2.46875 -5.171875 C 1.550781 -5.171875 0.40625 -4.640625 0.40625 -3.433594 L 0.40625 -1.621094 C 0.40625 -0.414062 1.550781 0.117188 2.46875 0.117188 C 3.421875 0.117188 4.464844 -0.507812 4.464844 -1.5 Z M 4.464844 -1.5 "/></g></g></g><g fill="#000000" fill-opacity="1"><g transform="translate(26.931737, 19.190851)"><g><path d="M 2.3125 0 L 2.3125 -1.34375 L 0.75 -1.34375 L 0.75 0 L 0.34375 0 L 0.34375 -2.90625 L 0.75 -2.90625 L 0.75 -1.6875 L 2.3125 -1.6875 L 2.3125 -2.90625 L 2.71875 -2.90625 L 2.71875 0 Z M 2.3125 0 "/></g></g></g><g fill="#000000" fill-opacity="1"><g transform="translate(30.503533, 19.190851)"><g><path d="M 3.09375 -1.46875 C 3.09375 -1.164062 3.03125 -0.898438 2.90625 -0.671875 C 2.789062 -0.441406 2.625 -0.265625 2.40625 -0.140625 C 2.195312 -0.015625 1.941406 0.046875 1.640625 0.046875 C 1.335938 0.046875 1.078125 -0.015625 0.859375 -0.140625 C 0.648438 -0.265625 0.488281 -0.441406 0.375 -0.671875 C 0.257812 -0.898438 0.203125 -1.164062 0.203125 -1.46875 C 0.203125 -1.9375 0.328125 -2.300781 0.578125 -2.5625 C 0.835938 -2.820312 1.191406 -2.953125 1.640625 -2.953125 C 1.941406 -2.953125 2.203125 -2.894531 2.421875 -2.78125 C 2.640625 -2.664062 2.804688 -2.492188 2.921875 -2.265625 C 3.035156 -2.035156 3.09375 -1.769531 3.09375 -1.46875 Z M 2.6875 -1.46875 C 2.6875 -1.832031 2.59375 -2.117188 2.40625 -2.328125 C 2.226562 -2.535156 1.972656 -2.640625 1.640625 -2.640625 C 1.304688 -2.640625 1.050781 -2.535156 0.875 -2.328125 C 0.695312 -2.117188 0.609375 -1.832031 0.609375 -1.46875 C 0.609375 -1.101562 0.695312 -0.8125 0.875 -0.59375 C 1.0625 -0.382812 1.316406 -0.28125 1.640625 -0.28125 C 1.972656 -0.28125 2.226562 -0.382812 2.40625 -0.59375 C 2.59375 -0.800781 2.6875 -1.09375 2.6875 -1.46875 Z M 2.6875 -1.46875 "/></g></g></g><g fill="#000000" fill-opacity="1"><g transform="translate(34.311411, 19.190851)"><g><path d="M 2.625 -0.796875 C 2.625 -0.535156 2.519531 -0.328125 2.3125 -0.171875 C 2.101562 -0.0234375 1.804688 0.046875 1.421875 0.046875 C 0.710938 0.046875 0.300781 -0.203125 0.1875 -0.703125 L 0.578125 -0.78125 C 0.617188 -0.601562 0.710938 -0.472656 0.859375 -0.390625 C 1.003906 -0.304688 1.195312 -0.265625 1.4375 -0.265625 C 1.695312 -0.265625 1.894531 -0.304688 2.03125 -0.390625 C 2.164062 -0.484375 2.234375 -0.613281 2.234375 -0.78125 C 2.234375 -0.875 2.210938 -0.953125 2.171875 -1.015625 C 2.128906 -1.078125 2.066406 -1.125 1.984375 -1.15625 C 1.910156 -1.195312 1.816406 -1.226562 1.703125 -1.25 C 1.597656 -1.28125 1.476562 -1.3125 1.34375 -1.34375 C 1.113281 -1.394531 0.9375 -1.445312 0.8125 -1.5 C 0.695312 -1.550781 0.601562 -1.609375 0.53125 -1.671875 C 0.46875 -1.734375 0.414062 -1.804688 0.375 -1.890625 C 0.34375 -1.972656 0.328125 -2.066406 0.328125 -2.171875 C 0.328125 -2.421875 0.421875 -2.613281 0.609375 -2.75 C 0.804688 -2.882812 1.082031 -2.953125 1.4375 -2.953125 C 1.769531 -2.953125 2.019531 -2.898438 2.1875 -2.796875 C 2.363281 -2.703125 2.488281 -2.53125 2.5625 -2.28125 L 2.171875 -2.21875 C 2.128906 -2.375 2.046875 -2.484375 1.921875 -2.546875 C 1.804688 -2.617188 1.644531 -2.65625 1.4375 -2.65625 C 1.195312 -2.65625 1.015625 -2.613281 0.890625 -2.53125 C 0.773438 -2.457031 0.71875 -2.347656 0.71875 -2.203125 C 0.71875 -2.109375 0.738281 -2.03125 0.78125 -1.96875 C 0.832031 -1.914062 0.898438 -1.867188 0.984375 -1.828125 C 1.078125 -1.785156 1.257812 -1.734375 1.53125 -1.671875 C 1.613281 -1.648438 1.695312 -1.628906 1.78125 -1.609375 C 1.875 -1.585938 1.960938 -1.5625 2.046875 -1.53125 C 2.128906 -1.507812 2.207031 -1.476562 2.28125 -1.4375 C 2.351562 -1.394531 2.414062 -1.34375 2.46875 -1.28125 C 2.519531 -1.226562 2.554688 -1.160156 2.578125 -1.078125 C 2.609375 -1.003906 2.625 -0.910156 2.625 -0.796875 Z M 2.625 -0.796875 "/></g></g></g><g fill="#000000" fill-opacity="1"><g transform="translate(37.649196, 19.190851)"><g><path d="M 2.59375 -2.03125 C 2.59375 -1.757812 2.503906 -1.539062 2.328125 -1.375 C 2.148438 -1.21875 1.90625 -1.140625 1.59375 -1.140625 L 0.75 -1.140625 L 0.75 0 L 0.34375 0 L 0.34375 -2.90625 L 1.578125 -2.90625 C 1.898438 -2.90625 2.148438 -2.828125 2.328125 -2.671875 C 2.503906 -2.523438 2.59375 -2.3125 2.59375 -2.03125 Z M 2.203125 -2.03125 C 2.203125 -2.40625 1.976562 -2.59375 1.53125 -2.59375 L 0.75 -2.59375 L 0.75 -1.453125 L 1.546875 -1.453125 C 1.984375 -1.453125 2.203125 -1.644531 2.203125 -2.03125 Z M 2.203125 -2.03125 "/></g></g></g><g fill="#000000" fill-opacity="1"><g transform="translate(40.986981, 19.190851)"><g><path d="M 0.390625 0 L 0.390625 -2.90625 L 0.78125 -2.90625 L 0.78125 0 Z M 0.390625 0 "/></g></g></g><g fill="#000000" fill-opacity="1"><g transform="translate(42.674262, 19.190851)"><g><path d="M 1.484375 -2.59375 L 1.484375 0 L 1.09375 0 L 1.09375 -2.59375 L 0.09375 -2.59375 L 0.09375 -2.90625 L 2.484375 -2.90625 L 2.484375 -2.59375 Z M 1.484375 -2.59375 "/></g></g></g><g fill="#000000" fill-opacity="1"><g transform="translate(45.773894, 19.190851)"><g><path d="M 2.40625 0 L 2.078125 -0.859375 L 0.75 -0.859375 L 0.421875 0 L 0.015625 0 L 1.203125 -2.90625 L 1.640625 -2.90625 L 2.8125 0 Z M 1.421875 -2.609375 L 1.390625 -2.5625 C 1.359375 -2.445312 1.3125 -2.300781 1.25 -2.125 L 0.875 -1.15625 L 1.96875 -1.15625 L 1.59375 -2.125 C 1.550781 -2.21875 1.507812 -2.320312 1.46875 -2.4375 Z M 1.421875 -2.609375 "/></g></g></g><g clip-path="url(#id3)"><g fill="#000000" fill-opacity="1"><g transform="translate(49.111679, 19.190851)"><g><path d="M 0.34375 0 L 0.34375 -2.90625 L 0.75 -2.90625 L 0.75 -0.328125 L 2.21875 -0.328125 L 2.21875 0 Z M 0.34375 0 "/></g></g></g></g></svg>